<svg width="146" height="48" viewBox="0 0 146 48" fill="none" xmlns="http://www.w3.org/2000/svg">
<path d="M2.4296 37.6309V10.7218H13.0461C15.0783 10.7218 16.8126 11.0853 18.2492 11.8123C19.6945 12.5306 20.7938 13.5511 21.5471 14.8738C22.3092 16.1877 22.6903 17.7337 22.6903 19.5119C22.6903 21.2988 22.3048 22.8361 21.534 24.1238C20.7632 25.4026 19.6463 26.3837 18.1835 27.0669C16.7294 27.7502 14.9688 28.0918 12.9015 28.0918H5.79324V23.5194H11.9818C13.068 23.5194 13.9702 23.3704 14.6885 23.0726C15.4068 22.7748 15.9411 22.3281 16.2915 21.7324C16.6506 21.1368 16.8302 20.3966 16.8302 19.5119C16.8302 18.6184 16.6506 17.8651 16.2915 17.252C15.9411 16.6388 15.4024 16.1745 14.6753 15.8592C13.9571 15.5351 13.0505 15.373 11.9555 15.373H8.11887V37.6309H2.4296ZM16.9616 25.3851L23.6494 37.6309H17.3689L10.8256 25.3851H16.9616ZM32.3607 38.0119C31.0731 38.0119 29.9256 37.7885 28.9182 37.3418C27.9109 36.8863 27.1138 36.2162 26.5269 35.3315C25.9488 34.438 25.6597 33.3256 25.6597 31.9941C25.6597 30.8729 25.8656 29.9313 26.2773 29.1692C26.689 28.4071 27.2496 27.794 27.9591 27.3297C28.6686 26.8655 29.4745 26.5151 30.3767 26.2786C31.2877 26.0421 32.2425 25.8757 33.241 25.7793C34.4148 25.6567 35.3608 25.5428 36.0791 25.4377C36.7974 25.3238 37.3186 25.1574 37.6427 24.9384C37.9668 24.7194 38.1288 24.3953 38.1288 23.9661V23.8873C38.1288 23.0551 37.866 22.4113 37.3405 21.9558C36.8237 21.5003 36.0879 21.2725 35.1331 21.2725C34.1257 21.2725 33.3242 21.4959 32.7286 21.9426C32.133 22.3806 31.7388 22.9325 31.5461 23.5982L26.3692 23.1777C26.632 21.9514 27.1488 20.8915 27.9197 19.998C28.6905 19.0958 29.6847 18.4038 30.9023 17.9221C32.1286 17.4315 33.5476 17.1863 35.1594 17.1863C36.2806 17.1863 37.3536 17.3176 38.3785 17.5804C39.4121 17.8432 40.3274 18.2505 41.1246 18.8024C41.9304 19.3542 42.5655 20.0637 43.0297 20.9309C43.494 21.7894 43.7261 22.8186 43.7261 24.0186V37.6309H38.4179V34.8322H38.2602C37.9361 35.4629 37.5025 36.0191 36.9594 36.5009C36.4163 36.9739 35.7638 37.3462 35.0017 37.6177C34.2396 37.8805 33.3593 38.0119 32.3607 38.0119ZM33.9637 34.149C34.7871 34.149 35.5141 33.9869 36.1448 33.6628C36.7755 33.33 37.2704 32.8832 37.6295 32.3226C37.9887 31.762 38.1682 31.127 38.1682 30.4174V28.2757C37.993 28.3896 37.7522 28.4947 37.4456 28.5911C37.1478 28.6787 36.8105 28.7619 36.4339 28.8407C36.0572 28.9108 35.6805 28.9765 35.3039 29.0378C34.9272 29.0904 34.5856 29.1386 34.279 29.1824C33.6221 29.2787 33.0483 29.432 32.5578 29.6422C32.0673 29.8524 31.6862 30.1371 31.4147 30.4963C31.1431 30.8466 31.0074 31.2846 31.0074 31.8102C31.0074 32.5723 31.2833 33.1548 31.8351 33.5577C32.3957 33.9519 33.1053 34.149 33.9637 34.149ZM53.6659 25.9632V37.6309H48.0686V10.7218H53.5083V21.0098H53.7448C54.2003 19.8185 54.9361 18.8856 55.9521 18.2111C56.9682 17.5279 58.2428 17.1863 59.7757 17.1863C61.1772 17.1863 62.3991 17.4928 63.4415 18.106C64.4926 18.7104 65.3073 19.582 65.8854 20.7207C66.4723 21.8507 66.7613 23.204 66.7526 24.7807V37.6309H61.1553V25.7793C61.164 24.5355 60.8487 23.5675 60.2093 22.8755C59.5786 22.1835 58.6939 21.8375 57.5551 21.8375C56.7931 21.8375 56.1186 21.9996 55.5317 22.3237C54.9536 22.6478 54.4981 23.1208 54.1652 23.7427C53.8411 24.3559 53.6747 25.0961 53.6659 25.9632ZM71.2626 37.6309V10.7218H76.8599V20.839H77.0307C77.276 20.2959 77.6307 19.744 78.095 19.1834C78.568 18.6141 79.1812 18.141 79.9345 17.7644C80.6966 17.379 81.6426 17.1863 82.7726 17.1863C84.2441 17.1863 85.6019 17.5717 86.8457 18.3425C88.0895 19.1046 89.0837 20.2565 89.8283 21.7981C90.5729 23.331 90.9451 25.2537 90.9451 27.5662C90.9451 29.8174 90.5816 31.7182 89.8546 33.2686C89.1363 34.8103 88.1552 35.9797 86.9114 36.7768C85.6763 37.5652 84.2923 37.9593 82.7594 37.9593C81.6732 37.9593 80.7491 37.7798 79.987 37.4206C79.2337 37.0615 78.6162 36.6104 78.1344 36.0673C77.6526 35.5154 77.2847 34.9592 77.0307 34.3986H76.7811V37.6309H71.2626ZM76.7417 27.5399C76.7417 28.74 76.9081 29.7868 77.2409 30.6802C77.5738 31.5737 78.0556 32.2701 78.6863 32.7694C79.3169 33.2599 80.0834 33.5051 80.9856 33.5051C81.8966 33.5051 82.6674 33.2555 83.2981 32.7562C83.9288 32.2482 84.4062 31.5474 84.7303 30.6539C85.0632 29.7517 85.2296 28.7137 85.2296 27.5399C85.2296 26.3749 85.0675 25.3501 84.7434 24.4654C84.4193 23.5807 83.9419 22.8887 83.3113 22.3894C82.6806 21.8901 81.9054 21.6404 80.9856 21.6404C80.0746 21.6404 79.3038 21.8813 78.6731 22.3631C78.0512 22.8449 77.5738 23.5281 77.2409 24.4128C76.9081 25.2975 76.7417 26.3399 76.7417 27.5399ZM100.435 38.0119C99.1473 38.0119 97.9998 37.7885 96.9925 37.3418C95.9851 36.8863 95.188 36.2162 94.6011 35.3315C94.023 34.438 93.7339 33.3256 93.7339 31.9941C93.7339 30.8729 93.9398 29.9313 94.3515 29.1692C94.7632 28.4071 95.3238 27.794 96.0333 27.3297C96.7428 26.8655 97.5487 26.5151 98.4509 26.2786C99.3619 26.0421 100.317 25.8757 101.315 25.7793C102.489 25.6567 103.435 25.5428 104.153 25.4377C104.872 25.3238 105.393 25.1574 105.717 24.9384C106.041 24.7194 106.203 24.3953 106.203 23.9661V23.8873C106.203 23.0551 105.94 22.4113 105.415 21.9558C104.898 21.5003 104.162 21.2725 103.207 21.2725C102.2 21.2725 101.398 21.4959 100.803 21.9426C100.207 22.3806 99.813 22.9325 99.6203 23.5982L94.4434 23.1777C94.7062 21.9514 95.223 20.8915 95.9939 19.998C96.7647 19.0958 97.7589 18.4038 98.9765 17.9221C100.203 17.4315 101.622 17.1863 103.234 17.1863C104.355 17.1863 105.428 17.3176 106.453 17.5804C107.486 17.8432 108.402 18.2505 109.199 18.8024C110.005 19.3542 110.64 20.0637 111.104 20.9309C111.568 21.7894 111.8 22.8186 111.8 24.0186V37.6309H106.492V34.8322H106.334C106.01 35.4629 105.577 36.0191 105.034 36.5009C104.491 36.9739 103.838 37.3462 103.076 37.6177C102.314 37.8805 101.434 38.0119 100.435 38.0119ZM102.038 34.149C102.861 34.149 103.588 33.9869 104.219 33.6628C104.85 33.33 105.345 32.8832 105.704 32.3226C106.063 31.762 106.242 31.127 106.242 30.4174V28.2757C106.067 28.3896 105.826 28.4947 105.52 28.5911C105.222 28.6787 104.885 28.7619 104.508 28.8407C104.131 28.9108 103.755 28.9765 103.378 29.0378C103.001 29.0904 102.66 29.1386 102.353 29.1824C101.696 29.2787 101.123 29.432 100.632 29.6422C100.141 29.8524 99.7604 30.1371 99.4889 30.4963C99.2174 30.8466 99.0816 31.2846 99.0816 31.8102C99.0816 32.5723 99.3575 33.1548 99.9094 33.5577C100.47 33.9519 101.179 34.149 102.038 34.149Z" fill="#EEC943"/>
<path d="M110.043 11.4863L115.512 14.6068C116.445 15.1392 117.202 15.9339 117.687 16.8923L125.83 32.9635C126.926 35.1257 129.567 35.9904 131.729 34.8948L140.925 30.2352L142.58 29.3968" stroke="#EEC943" stroke-width="5.48605" stroke-linecap="round"/>
<circle cx="132.763" cy="40.1181" r="4.745" transform="rotate(-9.73939 132.763 40.1181)" fill="#EEC943" stroke="#011432" stroke-width="1.64582"/>
</svg>
