<svg width="50" height="50" viewBox="0 0 50 50" fill="none" xmlns="http://www.w3.org/2000/svg">
<path d="M9.10511 47V3.36364H26.321C29.6165 3.36364 32.429 3.95312 34.7585 5.1321C37.1023 6.29687 38.8849 7.9517 40.1065 10.0966C41.3423 12.2273 41.9602 14.7344 41.9602 17.6179C41.9602 20.5156 41.3352 23.0085 40.0852 25.0966C38.8352 27.1705 37.0241 28.7614 34.652 29.8693C32.294 30.9773 29.4389 31.5312 26.0866 31.5312H14.5597V24.1165H24.5952C26.3565 24.1165 27.8196 23.875 28.9844 23.392C30.1491 22.9091 31.0156 22.1847 31.5838 21.2188C32.1662 20.2528 32.4574 19.0526 32.4574 17.6179C32.4574 16.169 32.1662 14.9474 31.5838 13.9531C31.0156 12.9588 30.142 12.206 28.9631 11.6946C27.7983 11.169 26.3281 10.9062 24.5526 10.9062H18.331V47H9.10511ZM32.6705 27.142L43.5156 47H33.331L22.7202 27.142H32.6705Z" fill="#EEC943"/>
</svg>
