<svg width="61" height="61" viewBox="0 0 61 61" fill="none" xmlns="http://www.w3.org/2000/svg">
<rect x="0.5" y="0.493164" width="60" height="60" rx="30" fill="#FDFDFC"/>
<circle cx="30.5" cy="30.4932" r="30" fill="#FDFDFC" fill-opacity="0.7"/>
<path d="M13.9545 42.6246H19.6818V28.7155L11.5 22.5791V40.17C11.5 41.5261 12.5984 42.6246 13.9545 42.6246Z" fill="#011432"/>
<path d="M39.3182 42.6246H45.0455C46.4016 42.6246 47.5001 41.5261 47.5001 40.17V22.5791L39.3182 28.7155V42.6246Z" fill="#011432"/>
<path d="M39.3182 18.0793V28.7157L47.5001 22.5793V19.3066C47.5001 16.2732 44.0371 14.5407 41.6091 16.3611L39.3182 18.0793Z" fill="#011432"/>
<path fill-rule="evenodd" clip-rule="evenodd" d="M19.6818 28.7155V18.0791L29.4999 25.4427L39.3181 18.0791V28.7155L29.4999 36.0791L19.6818 28.7155Z" fill="#011432"/>
<path d="M11.5 19.3066V22.5793L19.6818 28.7157V18.0793L17.3909 16.3611C14.963 14.5407 11.5 16.2732 11.5 19.3066Z" fill="#011432"/>
</svg>
