<svg width="30" height="31" viewBox="0 0 30 31" fill="none" xmlns="http://www.w3.org/2000/svg">
<g clip-path="url(#clip0_2004_12473)">
<path d="M20.625 3.88086C18.45 3.88086 16.3625 4.89336 15 6.49336C13.6375 4.89336 11.55 3.88086 9.375 3.88086C5.525 3.88086 2.5 6.90586 2.5 10.7559C2.5 15.4809 6.75 19.3309 13.1875 25.1809L15 26.8184L16.8125 25.1684C23.25 19.3309 27.5 15.4809 27.5 10.7559C27.5 6.90586 24.475 3.88086 20.625 3.88086ZM15.125 23.3184L15 23.4434L14.875 23.3184C8.925 17.9309 5 14.3684 5 10.7559C5 8.25586 6.875 6.38086 9.375 6.38086C11.3 6.38086 13.175 7.61836 13.8375 9.33086H16.175C16.825 7.61836 18.7 6.38086 20.625 6.38086C23.125 6.38086 25 8.25586 25 10.7559C25 14.3684 21.075 17.9309 15.125 23.3184Z" fill="#FDFDFC"/>
</g>
<defs>
<clipPath id="clip0_2004_12473">
<rect width="30" height="30" fill="white" transform="translate(0 0.130859)"/>
</clipPath>
</defs>
</svg>
