<svg width="61" height="61" viewBox="0 0 61 61" fill="none" xmlns="http://www.w3.org/2000/svg">
<rect x="0.5" y="0.493164" width="60" height="60" rx="30" fill="#FDFDFC"/>
<circle cx="30.5" cy="30.4932" r="30" fill="#FDFDFC" fill-opacity="0.7"/>
<path d="M38.0785 11.7432H22.9215C16.7615 11.7432 11.75 16.7547 11.75 22.9146V38.0717C11.75 44.2317 16.7615 49.2432 22.9215 49.2432H38.0785C44.2385 49.2432 49.25 44.2317 49.25 38.0717V22.9146C49.2499 16.7547 44.2384 11.7432 38.0785 11.7432ZM45.4775 38.0717C45.4775 42.158 42.1648 45.4707 38.0785 45.4707H22.9215C18.8352 45.4707 15.5225 42.158 15.5225 38.0717V22.9146C15.5225 18.8283 18.8352 15.5157 22.9215 15.5157H38.0785C42.1648 15.5157 45.4775 18.8283 45.4775 22.9146V38.0717Z" fill="#011432"/>
<path d="M30.5 20.7939C25.152 20.7939 20.8011 25.1448 20.8011 30.4927C20.8011 35.8406 25.152 40.1915 30.5 40.1915C35.8479 40.1915 40.1988 35.8407 40.1988 30.4927C40.1988 25.1448 35.8479 20.7939 30.5 20.7939ZM30.5 36.4191C27.2269 36.4191 24.5736 33.7658 24.5736 30.4928C24.5736 27.2197 27.227 24.5664 30.5 24.5664C33.773 24.5664 36.4263 27.2197 36.4263 30.4928C36.4263 33.7658 33.773 36.4191 30.5 36.4191Z" fill="#011432"/>
<path d="M40.2175 23.191C41.501 23.191 42.5415 22.1505 42.5415 20.867C42.5415 19.5835 41.501 18.543 40.2175 18.543C38.9339 18.543 37.8934 19.5835 37.8934 20.867C37.8934 22.1505 38.9339 23.191 40.2175 23.191Z" fill="#011432"/>
</svg>
