<svg width="28" height="25" viewBox="0 0 28 25" fill="none" xmlns="http://www.w3.org/2000/svg">
<path d="M20.0003 0C17.6803 0 15.4537 1.08 14.0003 2.78667C12.547 1.08 10.3203 0 8.00033 0C3.89366 0 0.666992 3.22667 0.666992 7.33333C0.666992 12.3733 5.20033 16.48 12.067 22.72L14.0003 24.4667L15.9337 22.7067C22.8003 16.48 27.3337 12.3733 27.3337 7.33333C27.3337 3.22667 24.107 0 20.0003 0ZM14.1337 20.7333L14.0003 20.8667L13.867 20.7333C7.52032 14.9867 3.33366 11.1867 3.33366 7.33333C3.33366 4.66667 5.33366 2.66667 8.00033 2.66667C10.0537 2.66667 12.0537 3.98667 12.7603 5.81333H15.2537C15.947 3.98667 17.947 2.66667 20.0003 2.66667C22.667 2.66667 24.667 4.66667 24.667 7.33333C24.667 11.1867 20.4803 14.9867 14.1337 20.7333Z" fill="#F5B8A3"/>
</svg>
