<svg width="136" height="25" viewBox="0 0 136 25" fill="none" xmlns="http://www.w3.org/2000/svg">
<path d="M11.5245 3.57472C11.6741 3.11407 12.3259 3.11407 12.4755 3.57472L13.9941 8.24849C14.1949 8.86652 14.7709 9.28496 15.4207 9.28496H20.335C20.8194 9.28496 21.0207 9.90477 20.6289 10.1895L16.6531 13.078C16.1274 13.46 15.9074 14.137 16.1082 14.7551L17.6268 19.4288C17.7765 19.8895 17.2493 20.2725 16.8574 19.9878L12.8817 17.0993C12.3559 16.7173 11.6441 16.7173 11.1183 17.0993L7.14258 19.9878C6.75073 20.2725 6.22349 19.8895 6.37316 19.4288L7.89176 14.7551C8.09257 14.137 7.87258 13.46 7.34685 13.078L3.37111 10.1895C2.97926 9.90477 3.18064 9.28496 3.66501 9.28496H8.57929C9.22913 9.28496 9.80506 8.86652 10.0059 8.24849L11.5245 3.57472Z" fill="#EEC943" stroke="#EEC943"/>
<path d="M39.5245 3.57472C39.6741 3.11407 40.3259 3.11407 40.4755 3.57472L41.9941 8.24849C42.1949 8.86652 42.7709 9.28496 43.4207 9.28496H48.335C48.8194 9.28496 49.0207 9.90477 48.6289 10.1895L44.6531 13.078C44.1274 13.46 43.9074 14.137 44.1082 14.7551L45.6268 19.4288C45.7765 19.8895 45.2493 20.2725 44.8574 19.9878L40.8817 17.0993C40.3559 16.7173 39.6441 16.7173 39.1183 17.0993L35.1426 19.9878C34.7507 20.2725 34.2235 19.8895 34.3732 19.4288L35.8918 14.7551C36.0926 14.137 35.8726 13.46 35.3469 13.078L31.3711 10.1895C30.9793 9.90477 31.1806 9.28496 31.665 9.28496H36.5793C37.2291 9.28496 37.8051 8.86652 38.0059 8.24849L39.5245 3.57472Z" fill="#EEC943" stroke="#EEC943"/>
<path d="M67.5245 3.57472C67.6741 3.11407 68.3259 3.11407 68.4755 3.57472L69.9941 8.24849C70.1949 8.86652 70.7709 9.28496 71.4207 9.28496H76.335C76.8194 9.28496 77.0207 9.90477 76.6289 10.1895L72.6531 13.078C72.1274 13.46 71.9074 14.137 72.1082 14.7551L73.6268 19.4288C73.7765 19.8895 73.2493 20.2725 72.8574 19.9878L68.8817 17.0993C68.3559 16.7173 67.6441 16.7173 67.1183 17.0993L63.1426 19.9878C62.7507 20.2725 62.2235 19.8895 62.3732 19.4288L63.8918 14.7551C64.0926 14.137 63.8726 13.46 63.3469 13.078L59.3711 10.1895C58.9793 9.90477 59.1806 9.28496 59.665 9.28496H64.5793C65.2291 9.28496 65.8051 8.86652 66.0059 8.24849L67.5245 3.57472Z" fill="#EEC943" stroke="#EEC943"/>
<path d="M95.5245 3.57472C95.6741 3.11407 96.3259 3.11407 96.4755 3.57472L97.9941 8.24849C98.1949 8.86652 98.7709 9.28496 99.4207 9.28496H104.335C104.819 9.28496 105.021 9.90477 104.629 10.1895L100.653 13.078C100.127 13.46 99.9074 14.137 100.108 14.7551L101.627 19.4288C101.777 19.8895 101.249 20.2725 100.857 19.9878L96.8817 17.0993C96.3559 16.7173 95.6441 16.7173 95.1183 17.0993L91.1426 19.9878C90.7507 20.2725 90.2235 19.8895 90.3732 19.4288L91.8918 14.7551C92.0926 14.137 91.8726 13.46 91.3469 13.078L87.3711 10.1895C86.9793 9.90477 87.1806 9.28496 87.665 9.28496H92.5793C93.2291 9.28496 93.8051 8.86652 94.0059 8.24849L95.5245 3.57472Z" stroke="#EEC943"/>
<path d="M123.524 3.57472C123.674 3.11407 124.326 3.11407 124.476 3.57472L125.994 8.24849C126.195 8.86652 126.771 9.28496 127.421 9.28496H132.335C132.819 9.28496 133.021 9.90477 132.629 10.1895L128.653 13.078C128.127 13.46 127.907 14.137 128.108 14.7551L129.627 19.4288C129.777 19.8895 129.249 20.2725 128.857 19.9878L124.882 17.0993C124.356 16.7173 123.644 16.7173 123.118 17.0993L119.143 19.9878C118.751 20.2725 118.223 19.8895 118.373 19.4288L119.892 14.7551C120.093 14.137 119.873 13.46 119.347 13.078L115.371 10.1895C114.979 9.90477 115.181 9.28496 115.665 9.28496H120.579C121.229 9.28496 121.805 8.86652 122.006 8.24849L123.524 3.57472Z" stroke="#EEC943"/>
</svg>
