<svg width="30" height="31" viewBox="0 0 30 31" fill="none" xmlns="http://www.w3.org/2000/svg">
<g clip-path="url(#clip0_2004_12470)">
<path d="M19.4375 16.3809C20.375 16.3809 21.2 15.8684 21.625 15.0934L26.1 6.98086C26.5625 6.15586 25.9625 5.13086 25.0125 5.13086H6.5125L5.3375 2.63086H1.25V5.13086H3.75L8.25 14.6184L6.5625 17.6684C5.65 19.3434 6.85 21.3809 8.75 21.3809H23.75V18.8809H8.75L10.125 16.3809H19.4375ZM7.7 7.63086H22.8875L19.4375 13.8809H10.6625L7.7 7.63086ZM8.75 22.6309C7.375 22.6309 6.2625 23.7559 6.2625 25.1309C6.2625 26.5059 7.375 27.6309 8.75 27.6309C10.125 27.6309 11.25 26.5059 11.25 25.1309C11.25 23.7559 10.125 22.6309 8.75 22.6309ZM21.25 22.6309C19.875 22.6309 18.7625 23.7559 18.7625 25.1309C18.7625 26.5059 19.875 27.6309 21.25 27.6309C22.625 27.6309 23.75 26.5059 23.75 25.1309C23.75 23.7559 22.625 22.6309 21.25 22.6309Z" fill="#FDFDFC"/>
</g>
<defs>
<clipPath id="clip0_2004_12470">
<rect width="30" height="30" fill="white" transform="translate(0 0.130859)"/>
</clipPath>
</defs>
</svg>
