<svg width="61" height="61" viewBox="0 0 61 61" fill="none" xmlns="http://www.w3.org/2000/svg">
<rect x="0.5" y="0.493164" width="60" height="60" rx="30" fill="#FDFDFC"/>
<circle cx="30.5" cy="30.4932" r="30" fill="#FDFDFC" fill-opacity="0.7"/>
<path d="M43.2297 37.0664C38.2743 34.6668 37.4845 30.962 37.4494 30.6873C37.4069 30.3544 37.3586 30.0927 37.7257 29.7541C38.0797 29.427 39.6503 28.4546 40.0861 28.1503C40.8064 27.6466 41.1236 27.1436 40.8898 26.5253C40.7263 26.0976 40.3281 25.9365 39.9087 25.9365C39.7764 25.9369 39.6445 25.9517 39.5154 25.9806C38.724 26.1524 37.9555 26.549 37.5107 26.6562C37.4572 26.6699 37.4024 26.6774 37.3472 26.6782C37.1101 26.6782 37.0201 26.5727 37.043 26.2873C37.0986 25.422 37.2164 23.7332 37.0798 22.1556C36.8926 19.9851 36.1927 18.9096 35.3629 17.9585C34.9614 17.4972 33.0973 15.5156 29.4999 15.5156C25.9026 15.5156 24.0409 17.4972 23.6419 17.9528C22.8096 18.9039 22.1106 19.9794 21.925 22.1499C21.7884 23.7275 21.9111 25.4155 21.9618 26.2816C21.9781 26.5531 21.8947 26.6725 21.6576 26.6725C21.6024 26.6716 21.5476 26.6642 21.4941 26.6504C21.0502 26.5433 20.2816 26.1466 19.4902 25.9749C19.3611 25.9459 19.2292 25.9311 19.0969 25.9307C18.6759 25.9307 18.2793 26.0943 18.1158 26.5196C17.882 27.1379 18.1976 27.6408 18.9203 28.1446C19.3561 28.4488 20.9267 29.4204 21.2807 29.7484C21.647 30.087 21.5996 30.3487 21.5571 30.6815C21.5219 30.9604 20.7313 34.6652 15.7767 37.0606C15.4865 37.2013 14.9926 37.499 15.8634 37.9799C17.2304 38.7356 18.1404 38.6546 18.8476 39.1101C19.4477 39.497 19.0929 40.3311 19.5294 40.6321C20.0658 41.0026 21.6511 40.6059 23.6991 41.2823C25.4161 41.8482 26.4593 43.4471 29.504 43.4471C32.5487 43.4471 33.6222 41.8409 35.3089 41.2823C37.3529 40.6059 38.9415 41.0026 39.4786 40.6321C39.9144 40.3311 39.5604 39.497 40.1605 39.1101C40.8677 38.6546 41.7769 38.7356 43.1447 37.9799C44.0138 37.5047 43.52 37.207 43.2297 37.0664Z" fill="white"/>
<path d="M45.3855 36.7836C45.1631 36.1784 44.7396 35.8545 44.2572 35.5863C44.1665 35.5331 44.0831 35.4906 44.0119 35.4579C43.868 35.3835 43.7209 35.3115 43.5745 35.2354C42.071 34.438 40.8969 33.4321 40.0826 32.2397C39.8513 31.904 39.6508 31.5482 39.4833 31.1765C39.4138 30.9778 39.4171 30.8649 39.4669 30.7619C39.5164 30.6825 39.5818 30.6143 39.6591 30.5615C39.9174 30.3906 40.184 30.2172 40.3647 30.1003C40.6868 29.8917 40.9419 29.7265 41.1062 29.6096C41.7235 29.1777 42.1552 28.7189 42.425 28.2061C42.6132 27.8519 42.723 27.4612 42.7468 27.0607C42.7707 26.6602 42.708 26.2593 42.5632 25.8851C42.1544 24.8089 41.1381 24.1407 39.9068 24.1407C39.6471 24.1405 39.3881 24.1679 39.1342 24.2225C39.0663 24.2372 38.9985 24.2527 38.9322 24.2699C38.9437 23.5339 38.9273 22.7569 38.8619 21.9922C38.6297 19.304 37.6887 17.8949 36.7076 16.7712C36.0793 16.067 35.3393 15.4713 34.5173 15.0079C33.0284 14.1574 31.3401 13.7256 29.4997 13.7256C27.6593 13.7256 25.9792 14.1574 24.4887 15.0079C23.6647 15.4714 22.9232 16.0684 22.2943 16.7745C21.3132 17.8982 20.3722 19.3098 20.14 21.9955C20.0745 22.7602 20.0582 23.5412 20.0688 24.2732C20.0026 24.256 19.9356 24.2405 19.8677 24.2258C19.6138 24.1711 19.3548 24.1437 19.0951 24.144C17.863 24.144 16.8451 24.8121 16.4379 25.8884C16.2924 26.2627 16.2291 26.6639 16.2524 27.0648C16.2757 27.4658 16.3849 27.857 16.5728 28.2119C16.8434 28.7247 17.2751 29.1835 17.8924 29.6153C18.0559 29.7298 18.3118 29.895 18.634 30.106C18.8081 30.2188 19.0624 30.384 19.3117 30.5492C19.399 30.6057 19.4731 30.6801 19.5292 30.7676C19.5815 30.8747 19.5832 30.9901 19.5055 31.2027C19.3403 31.5665 19.143 31.915 18.916 32.2438C18.1197 33.4092 16.98 34.3971 15.5247 35.188C14.7537 35.5969 13.9524 35.8701 13.614 36.7901C13.3589 37.4845 13.5257 38.2745 14.174 38.9402C14.412 39.1887 14.6879 39.3977 14.9916 39.5593C15.6234 39.9066 16.2953 40.1755 16.9922 40.36C17.1361 40.3971 17.2726 40.4582 17.3961 40.5407C17.6324 40.7476 17.5989 41.0592 17.9137 41.5156C18.0717 41.7514 18.2724 41.9556 18.5056 42.1175C19.1662 42.5738 19.9086 42.6025 20.6951 42.6327C21.4056 42.6597 22.2109 42.6908 23.1307 42.9942C23.5117 43.1202 23.9074 43.3639 24.3661 43.6485C25.4674 44.3256 26.975 45.2523 29.4981 45.2523C32.0212 45.2523 33.5394 44.3207 34.6489 43.6411C35.1043 43.3614 35.4976 43.1202 35.8679 42.9975C36.7877 42.6932 37.593 42.663 38.3035 42.636C39.09 42.6057 39.8324 42.5771 40.493 42.1208C40.7691 41.9282 40.9992 41.6768 41.1667 41.3847C41.3932 40.9995 41.3875 40.7304 41.6 40.5423C41.7159 40.4638 41.8441 40.4051 41.9794 40.369C42.6859 40.1839 43.3669 39.9126 44.007 39.5609C44.3296 39.3878 44.62 39.1604 44.8655 38.8887L44.8737 38.8789C45.482 38.2279 45.6348 37.4608 45.3855 36.7836ZM43.1428 37.9891C41.775 38.7448 40.8658 38.6638 40.1586 39.1193C39.5577 39.5062 39.9134 40.3403 39.4768 40.6413C38.9404 41.0118 37.3551 40.6151 35.3071 41.2915C33.6179 41.8501 32.5403 43.4563 29.5022 43.4563C26.464 43.4563 25.4118 41.8533 23.6948 41.2874C21.6509 40.611 20.0623 41.0077 19.5251 40.6372C19.0894 40.3363 19.4434 39.5021 18.8433 39.1152C18.1352 38.6597 17.2261 38.7407 15.8591 37.9891C14.9883 37.5082 15.4822 37.2105 15.7724 37.0698C20.727 34.6703 21.5176 30.9655 21.5528 30.6907C21.5953 30.3579 21.6427 30.0962 21.2764 29.7576C20.9224 29.4304 19.3518 28.458 18.916 28.1538C18.1949 27.65 17.8777 27.1471 18.1115 26.5288C18.275 26.101 18.674 25.9399 19.0926 25.9399C19.2249 25.9403 19.3568 25.9551 19.4859 25.9841C20.2773 26.1558 21.0458 26.5525 21.4898 26.6596C21.5433 26.6733 21.5981 26.6808 21.6533 26.6817C21.8904 26.6817 21.9738 26.5623 21.9575 26.2908C21.9068 25.4247 21.7841 23.7367 21.9207 22.1591C22.1079 19.9886 22.8069 18.9131 23.6376 17.962C24.0366 17.5048 25.9113 15.5232 29.4964 15.5232C33.0816 15.5232 34.9612 17.4966 35.3602 17.9521C36.1917 18.9033 36.8915 19.9787 37.0771 22.1493C37.2137 23.7269 37.0959 25.4157 37.0403 26.281C37.0215 26.5664 37.1074 26.6719 37.3445 26.6719C37.3997 26.671 37.4546 26.6636 37.508 26.6498C37.9528 26.5427 38.7213 26.146 39.5127 25.9743C39.6418 25.9453 39.7737 25.9305 39.906 25.9301C40.3271 25.9301 40.7236 26.0937 40.8871 26.519C41.1209 27.1372 40.8053 27.6402 40.0834 28.144C39.6476 28.4482 38.077 29.4198 37.723 29.7478C37.3559 30.0863 37.4042 30.3481 37.4467 30.6809C37.4818 30.9598 38.2716 34.6646 43.227 37.06C43.5197 37.2064 44.0136 37.5041 43.1428 37.9891Z" fill="#011432"/>
</svg>
