<svg width="30" height="31" viewBox="0 0 30 31" fill="none" xmlns="http://www.w3.org/2000/svg">
<g clip-path="url(#clip0_2004_12476)">
<path d="M15 2.63086C8.1 2.63086 2.5 8.23086 2.5 15.1309C2.5 22.0309 8.1 27.6309 15 27.6309C21.9 27.6309 27.5 22.0309 27.5 15.1309C27.5 8.23086 21.9 2.63086 15 2.63086ZM8.8375 22.9809C9.375 21.8559 12.65 20.7559 15 20.7559C17.35 20.7559 20.6375 21.8559 21.1625 22.9809C19.4625 24.3309 17.325 25.1309 15 25.1309C12.675 25.1309 10.5375 24.3309 8.8375 22.9809ZM22.95 21.1684C21.1625 18.9934 16.825 18.2559 15 18.2559C13.175 18.2559 8.8375 18.9934 7.05 21.1684C5.775 19.4934 5 17.4059 5 15.1309C5 9.61836 9.4875 5.13086 15 5.13086C20.5125 5.13086 25 9.61836 25 15.1309C25 17.4059 24.225 19.4934 22.95 21.1684V21.1684ZM15 7.63086C12.575 7.63086 10.625 9.58086 10.625 12.0059C10.625 14.4309 12.575 16.3809 15 16.3809C17.425 16.3809 19.375 14.4309 19.375 12.0059C19.375 9.58086 17.425 7.63086 15 7.63086ZM15 13.8809C13.9625 13.8809 13.125 13.0434 13.125 12.0059C13.125 10.9684 13.9625 10.1309 15 10.1309C16.0375 10.1309 16.875 10.9684 16.875 12.0059C16.875 13.0434 16.0375 13.8809 15 13.8809Z" fill="#FDFDFC"/>
</g>
<defs>
<clipPath id="clip0_2004_12476">
<rect width="30" height="30" fill="white" transform="translate(0 0.130859)"/>
</clipPath>
</defs>
</svg>
